<?xml version="1.0" encoding="UTF-8" standalone="no"?>
<!-- Created with Inkscape (http://www.inkscape.org/) -->

<svg
   width="130.7144mm"
   height="144.87671mm"
   viewBox="0 0 130.7144 144.87671"
   version="1.1"
   id="svg1"
   xml:space="preserve"
   inkscape:version="1.4 (1:1.4+202410161351+e7c3feb100)"
   sodipodi:docname="logo_machacon_blanco.svg"
   inkscape:export-filename="logo_machacon_grande_blanco.png"
   inkscape:export-xdpi="1753.21"
   inkscape:export-ydpi="1753.21"
   xmlns:inkscape="http://www.inkscape.org/namespaces/inkscape"
   xmlns:sodipodi="http://sodipodi.sourceforge.net/DTD/sodipodi-0.dtd"
   xmlns="http://www.w3.org/2000/svg"
   xmlns:svg="http://www.w3.org/2000/svg"><sodipodi:namedview
     id="namedview1"
     pagecolor="#858585"
     bordercolor="#000000"
     borderopacity="0.25"
     inkscape:showpageshadow="2"
     inkscape:pageopacity="0.0"
     inkscape:pagecheckerboard="0"
     inkscape:deskcolor="#d1d1d1"
     inkscape:document-units="mm"
     inkscape:zoom="1.0444209"
     inkscape:cx="171.38684"
     inkscape:cy="206.33444"
     inkscape:window-width="1920"
     inkscape:window-height="1031"
     inkscape:window-x="0"
     inkscape:window-y="25"
     inkscape:window-maximized="1"
     inkscape:current-layer="layer1"
     showgrid="false" /><defs
     id="defs1"><inkscape:path-effect
       effect="spiro"
       id="path-effect15"
       is_visible="true"
       lpeversion="1" /><inkscape:path-effect
       effect="spiro"
       id="path-effect13"
       is_visible="true"
       lpeversion="1" /><inkscape:path-effect
       effect="spiro"
       id="path-effect11"
       is_visible="true"
       lpeversion="1" /><inkscape:path-effect
       effect="spiro"
       id="path-effect9"
       is_visible="true"
       lpeversion="1" /><inkscape:path-effect
       effect="spiro"
       id="path-effect8"
       is_visible="true"
       lpeversion="1" /><inkscape:path-effect
       effect="spiro"
       id="path-effect7"
       is_visible="true"
       lpeversion="1" /></defs><g
     inkscape:label="Layer 1"
     inkscape:groupmode="layer"
     id="layer1"
     style="display:inline"
     transform="translate(-39.642052,-83.142242)"><path
       id="path1"
       style="fill:#ff0000;fill-opacity:1;stroke:#ffffff;stroke-width:3.3;stroke-linejoin:round;stroke-dasharray:none"
       d="m 131.37647,84.792242 -52.77403,0.0083 -37.310388,37.439688 0.0072,43.69085 H 168.70646 l -0.007,-43.71159 z"
       inkscape:export-filename="logo_machacon_grande.png"
       inkscape:export-xdpi="1762.34"
       inkscape:export-ydpi="1762.34" /><text
       xml:space="preserve"
       style="font-size:31.75px;font-family:Ubuntu;-inkscape-font-specification:Ubuntu;text-align:start;writing-mode:lr-tb;direction:ltr;text-anchor:start;fill:none;fill-opacity:1;stroke:#1a1a1a;stroke-width:1;stroke-linejoin:round;stroke-dasharray:none"
       x="61.979492"
       y="127.24099"
       id="text2"><tspan
         sodipodi:role="line"
         id="tspan2"
         style="font-style:normal;font-variant:normal;font-weight:bold;font-stretch:normal;font-size:31.75px;font-family:Arial;-inkscape-font-specification:'Arial Bold';fill:#ffffff;stroke:none;stroke-width:1;stroke-dasharray:none"
         x="61.979492"
         y="127.24099">STOP</tspan></text><text
       xml:space="preserve"
       style="font-style:normal;font-variant:normal;font-weight:bold;font-stretch:normal;font-size:36.7105px;font-family:Arial;-inkscape-font-specification:'Arial Bold';text-align:start;writing-mode:lr-tb;direction:ltr;text-anchor:start;fill:#ffffff;fill-opacity:1;stroke:none;stroke-width:0.999996;stroke-linejoin:round;stroke-dasharray:none"
       x="37.729748"
       y="214.70345"
       id="text3"
       transform="scale(1.383432,0.72284)"><tspan
         sodipodi:role="line"
         id="tspan3"
         style="font-style:normal;font-variant:normal;font-weight:normal;font-stretch:normal;font-family:Shlop;-inkscape-font-specification:Shlop;fill:#000000;stroke-width:0.999996"
         x="37.729748"
         y="214.70345">BIOGÁS</tspan></text><g
       id="g16"
       transform="matrix(1.555563,0,0,1.555563,-93.719429,-80.881229)"
       style="fill:#ffffff;stroke:#ffffff;stroke-width:0.642854"><path
         style="fill:#ffffff;fill-opacity:1;stroke:#ffffff;stroke-width:0.385712;stroke-linejoin:round;stroke-dasharray:none"
         d="m 114.26946,221.95441 0.42577,31.2491"
         id="path8"
         inkscape:path-effect="#path-effect9"
         inkscape:original-d="m 114.26946,221.95441 0.42577,31.2491"
         sodipodi:nodetypes="cc"
         transform="translate(-0.35826297,-63.054282)" /><path
         style="fill:#ffffff;fill-opacity:1;stroke:#ffffff;stroke-width:0.385712;stroke-linejoin:round;stroke-dasharray:none"
         d="m 116.33855,221.76804 -4.36662,30.61215"
         id="path9"
         inkscape:path-effect="#path-effect11"
         inkscape:original-d="m 116.33855,221.76804 -4.36662,30.61215"
         sodipodi:nodetypes="cc"
         transform="translate(8.0016327,-62.800952)" /><path
         style="fill:#ffffff;fill-opacity:1;stroke:none;stroke-width:1.15714;stroke-linejoin:round;stroke-dasharray:none"
         d="m 115.28696,174.66442 c -0.0985,0.22728 -0.39066,0.24328 -0.50666,0.47499 -0.116,0.23171 -0.095,0.85499 -0.095,0.85499 l -0.38,1.70998 -0.60166,1.32999 0.72832,1.17165 0.44333,0.69666 0.98166,0.60165 0.60165,0.41167 0.44333,0.37999 0.22167,0.19 -0.15833,-0.79166 -0.19,-0.31666 c 0,0 -0.33998,-0.14718 -0.44333,-0.22167 -0.10335,-0.0745 -0.12931,-0.10579 -0.19,-0.18999 -0.0607,-0.0842 -0.12718,-0.20903 -0.15833,-0.31666 -0.0311,-0.10763 -0.0743,-0.21978 -0.0317,-0.31667 0.0426,-0.0969 0.15936,-0.19241 0.25333,-0.19 0.094,0.002 0.18999,0.15834 0.18999,0.15834 0,0 -0.19357,-0.87869 -0.0317,-1.34582 0.16187,-0.46713 0.82866,-1.10612 1.47248,-1.08457 0.64382,0.0215 1.38567,0.40257 1.74956,1.17165 0.0991,0.32231 -0.0554,1.13998 -0.0554,1.13998 0,0 0.20489,-0.0343 0.29292,0.0871 0.088,0.12136 -0.0158,0.46705 -0.0158,0.59374 0,0.12668 -0.7204,0.57791 -0.7204,0.57791 l -0.44333,0.66499 c 0,0 -0.0633,0.15833 0.15833,0.19 0.22166,0.0317 1.23499,-0.75999 1.23499,-0.75999 0,0 2.27997,-2.21664 2.18497,-2.3433 -0.095,-0.12667 0,-3.83162 0,-3.83162 l -0.41167,-0.50666 c 0,0 -0.14816,-0.28594 -0.18999,-0.53833 -0.0418,-0.25239 -0.0211,-0.64174 0.18999,-0.82332 0.2111,-0.18158 0.60166,-0.19 0.82333,-0.0633 0.22166,0.12666 0.47499,0.41166 0.50666,0.66499 0.0317,0.25333 -0.0633,0.15833 -0.0317,0.44332 0.0317,0.285 0.0303,0.56222 0.0317,0.82333 0.006,1.16171 0.0681,2.2061 0.095,2.31163 0.0589,0.2308 0.11523,1.22666 -0.0158,1.63082 -0.061,0.18825 -0.28484,0.79905 -2.45414,4.29078 l -0.75208,6.76075 c 0,0 -0.16536,0.86327 -0.50666,1.28248 -0.3413,0.41921 -1.65456,0.85499 -1.65456,0.85499 0,0 -1.01332,2.6283 -0.82332,2.6283 0.19,0 0.23811,0.10844 0.2698,0.23511 0.0317,0.12667 -0.0952,0.23569 -0.23814,0.58821 -0.14299,0.35252 -0.11352,0.86299 -0.16535,1.30392 -0.0518,0.44093 -0.15973,1.1884 -0.31365,1.28712 -0.15392,0.0987 -1.94696,0.038 -2.11571,-0.31474 -0.16876,-0.35276 0.40011,-0.85455 0.7011,-1.51817 0.30098,-0.66361 0.24917,-1.37122 0.35877,-1.54243 0.10963,-0.17121 0.3853,-0.0385 0.4582,-0.19735 0.0729,-0.15887 0.095,-2.56497 0.095,-2.56497 l -1.17165,-0.66499 -1.13998,2.02664 -0.008,0.96579 c 0,0 -0.3073,0.96701 -0.53832,1.37749 -0.23103,0.41048 -0.22281,0.33972 -0.62541,0.42749 -0.40258,0.0878 -1.564,-0.73551 -1.5754,-0.92623 -0.0338,-0.5656 0.86153,-0.94577 0.92624,-1.08458 0.0647,-0.1388 0.0158,-0.44332 0.5225,-1.04499 0.22805,-0.27079 0.88665,-2.94496 0.88665,-2.94496 0,0 0.63333,-1.20332 0.75999,-1.23498 0.12667,-0.0317 0.22167,-1.55165 0.22167,-1.55165 l 0.44332,-0.60166 0.25333,-0.34833 -0.47499,-3.35662 -1.01332,-0.94999 0.0396,-0.93415 c 0,0 -1.12101,-2.22332 -1.17958,-2.35914 -0.0586,-0.13582 -0.0914,-0.23101 -0.0475,-0.60166 0.0439,-0.37065 1.17457,-2.24592 1.40915,-3.13497 0.23458,-0.88905 -0.18884,-1.88076 0.22167,-2.21663 0.41051,-0.33587 0.72295,-0.0436 0.94998,0.095 0.22703,0.13859 0.2807,0.30929 0.34833,0.53832 0.0676,0.22903 0.0984,0.56437 -3e-5,0.79165 z"
         id="path4"
         sodipodi:nodetypes="zzccccccccccczzzzzczzzczzccscscczzsscssscczczzzzzzzzzcccczzszscscccccczzzzzzzz" /><path
         style="fill:#ffffff;fill-opacity:1;stroke:#ffffff;stroke-width:0.385712;stroke-linejoin:round;stroke-dasharray:none"
         d="m 114.70682,221.78807 0.36841,29.51546"
         id="path11"
         inkscape:path-effect="#path-effect13"
         inkscape:original-d="m 114.70682,221.78807 c 29.97097,8.15039 0.2827,21.70467 0.36841,29.51546"
         sodipodi:nodetypes="cc"
         transform="translate(18.008175,-62.864285)" /><path
         style="fill:#ffffff;fill-opacity:1;stroke:#ffffff;stroke-width:0.385712;stroke-linejoin:round;stroke-dasharray:none"
         d="m 115.80283,221.7797 -2.69091,29.71383"
         id="path13"
         inkscape:path-effect="#path-effect15"
         inkscape:original-d="m 115.80283,221.7797 -2.69091,29.71383"
         sodipodi:nodetypes="cc"
         transform="translate(27.761386,-62.864285)" /><path
         style="fill:#ffffff;fill-opacity:1;stroke:none;stroke-width:0.128571;stroke-linejoin:round;stroke-dasharray:none"
         d="m 136.68725,175.99668 c 2.08451,0.0107 3.25679,1.62109 1.96051,4.38873 1.25635,-0.68064 2.63655,-0.49433 4.2096,-1.16436 1.57305,-0.67004 3.40236,-1.99188 4.25437,-2.73175 0.85201,-0.73988 0.54992,-1.38966 1.11957,-1.2987 0.56965,0.0909 0.86149,1.07293 0.67175,1.61218 -0.18974,0.53924 -0.60503,0.26688 -1.47784,0.80609 -0.87281,0.53921 -2.414,1.80602 -3.67219,2.55262 -1.25819,0.74659 -3.24284,0.60266 -3.85133,1.92567 -0.60849,1.323 0.91561,3.18346 1.07479,4.29915 0.15918,1.11568 0.39306,1.55431 0.0896,2.32871 -0.30346,0.77439 -1.54517,1.11176 -1.88088,1.88088 -0.33571,0.76911 -0.13182,1.7668 -0.0896,2.37349 0.0422,0.60669 0.5824,0.88532 0.22391,1.25393 -0.35849,0.3686 -1.45743,0.0308 -1.79131,-0.2687 -0.33388,-0.29951 -0.21959,-0.3585 -0.22392,-0.85088 -0.004,-0.49239 0.7836,-1.62377 0.49261,-2.01523 -0.29099,-0.39147 -0.53951,-0.40645 -0.85087,-0.0448 -0.31136,0.36164 0.27761,1.46394 0.40305,1.97045 0.12544,0.5065 0.5634,0.57114 0.31348,1.07479 -0.24992,0.50364 -1.19443,1.39765 -2.1048,0.80609 -0.91037,-0.59156 0.33111,-3.49381 -0.22391,-4.25437 -0.55502,-0.76057 -0.9795,-0.036 -1.29871,-0.49262 -0.31921,-0.45663 -1.32954,-1.17796 -1.50903,-1.80668 -0.17949,-0.62873 -0.0198,-0.81979 0.19496,-1.17747 0.21474,-0.35769 0.3986,-0.40131 0.77668,-1.0463 0.37808,-0.645 0.72194,-2.5286 0.40305,-3.17959 -0.31889,-0.651 -0.80606,-0.36036 -0.98523,-0.58218 -0.17917,-0.22183 0.30561,0.0564 -0.17913,-0.53739 -0.48474,-0.59379 -2.35183,-1.11508 -3.49306,-2.01523 -1.14123,-0.90016 -2.43902,-2.79216 -3.22437,-3.4035 -0.78535,-0.61135 -0.94505,-0.1589 -1.11957,-0.62696 -0.17452,-0.46807 0.12322,-1.48281 0.58218,-1.61218 0.45896,-0.12938 0.69316,0.4798 0.89565,0.71653 0.20249,0.23672 -0.21219,-0.0545 0.35827,0.62695 0.57046,0.68142 1.86184,2.28088 3.35871,3.1572 1.49687,0.87631 5.67065,2.3992 5.3554,1.96548 -1.59184,-1.82311 -0.84689,-4.6407 1.23761,-4.63005 z"
         id="path6"
         sodipodi:nodetypes="zczzzzzzzzzzzzzzzzzzzzzzzzzzzzzzzzzzcz" /></g><text
       xml:space="preserve"
       style="font-style:normal;font-variant:normal;font-weight:normal;font-stretch:normal;font-size:24.4131px;font-family:Shlop;-inkscape-font-specification:Shlop;text-align:start;writing-mode:lr-tb;direction:ltr;text-anchor:start;fill:#ffffff;fill-opacity:1;stroke:none;stroke-width:1.8;stroke-linejoin:round;stroke-dasharray:none"
       x="49.403984"
       y="187.73863"
       id="text4"><tspan
         sodipodi:role="line"
         id="tspan4"
         style="font-style:normal;font-variant:normal;font-weight:bold;font-stretch:normal;font-family:'Comic Sans MS';-inkscape-font-specification:'Comic Sans MS Bold';fill:#ffffff;stroke:none;stroke-width:1.8"
         x="49.403984"
         y="187.73863">Machacón</tspan></text></g></svg>
